<svg width="400" height="400" viewBox="0 0 400 400" fill="none" xmlns="http://www.w3.org/2000/svg">
<g clip-path="url(#clip0_1105_66240)">
<mask id="mask0_1105_66240" style="mask-type:luminance" maskUnits="userSpaceOnUse" x="0" y="0" width="400" height="400">
<path d="M400 0H0V400H400V0Z" fill="white"/>
</mask>
<g mask="url(#mask0_1105_66240)">
<mask id="mask1_1105_66240" style="mask-type:luminance" maskUnits="userSpaceOnUse" x="0" y="0" width="400" height="400">
<path d="M0.0654297 0.0693359H399.927V400H0.0654297V0.0693359Z" fill="#FFFFFE"/>
</mask>
<g mask="url(#mask1_1105_66240)">
<path fill-rule="evenodd" clip-rule="evenodd" d="M47.4884 397.56C39.0494 397.56 31.9177 390.981 31.2532 382.585L2.49003 20.0508C2.13231 15.55 3.68461 11.0644 6.75128 7.74516C9.82553 4.41724 14.1908 2.5083 18.7253 2.5083H381.201C385.737 2.5083 390.1 4.41724 393.174 7.74407C396.24 11.0633 397.795 15.55 397.439 20.0508L368.674 382.585C368.008 390.982 360.876 397.56 352.438 397.56H47.4884Z" fill="#FFFFFE"/>
</g>
<path fill-rule="evenodd" clip-rule="evenodd" d="M381.202 4.94738C389.281 4.94738 395.644 11.8211 395.006 19.858L366.243 382.393C365.673 389.58 359.662 395.122 352.438 395.122H47.4888C40.2638 395.122 34.253 389.58 33.6839 382.393L4.92076 19.858C4.28227 11.8211 10.6465 4.94738 18.7256 4.94738H381.202ZM381.202 0.0693359H18.7256C13.5126 0.0693359 8.49691 2.26446 4.96195 6.08993C1.43458 9.90673 -0.351872 15.0666 0.0589678 20.2439L28.8221 382.778C29.5874 392.434 37.7869 400 47.4888 400H352.438C362.14 400 370.34 392.434 371.106 382.778L399.869 20.2439C400.279 15.0666 398.491 9.90673 394.965 6.08993C391.431 2.26446 386.415 0.0693359 381.202 0.0693359Z" fill="#0A0B09"/>
<path fill-rule="evenodd" clip-rule="evenodd" d="M237.655 323.445C236.568 323.445 235.722 322.501 235.842 321.421C235.862 321.238 235.866 321.178 235.866 321.178C236.163 316.637 234.608 313.975 229.509 313.975L213.736 313.993L209.52 333.212H232.1C233.262 333.212 234.125 334.288 233.874 335.422L231.675 345.332C231.491 346.164 230.753 346.753 229.905 346.753H206.52C206.52 346.753 203.922 358.528 203.829 359.036C202.959 362.837 205.557 364.811 207.299 365.659C207.388 365.701 207.476 365.742 207.566 365.782C208.313 366.117 208.723 366.929 208.545 367.728L207.344 373.145C207.161 373.972 206.427 374.562 205.58 374.562H178.083C176.93 374.562 176.073 373.494 176.321 372.367L188.299 318.099C189.52 313.311 186.718 311.363 184.705 310.595C184.636 310.57 184.567 310.546 184.501 310.521C183.601 310.202 183.081 309.262 183.289 308.328L184.346 303.552C184.547 302.645 185.352 302 186.282 302H247.418C248.578 302 249.441 303.075 249.19 304.208L245.235 322.027C245.05 322.855 244.317 323.445 243.468 323.445H237.655ZM145.703 303.541C145.902 302.641 146.7 302 147.623 302H177.52C178.684 302 179.55 303.079 179.296 304.216L178.283 308.811C178.108 309.59 177.463 310.145 176.67 310.23C176.532 310.245 176.444 310.254 176.444 310.254C174.192 310.554 170.124 311.287 166.79 313.895L141.938 334.563C141.936 334.565 141.936 334.568 141.937 334.57L161.062 360.453C164.769 365.22 166.597 366.083 170.324 366.14C171.547 366.164 172.425 367.311 172.16 368.503L171.117 373.157C170.933 373.978 170.205 374.562 169.364 374.562H154.47C137.977 374.564 133.424 367.33 119.686 342.214C119.682 342.208 119.675 342.209 119.674 342.215L115.663 360.537C115.054 363.384 117.438 364.892 119.186 365.601C119.262 365.634 119.338 365.662 119.408 365.689C120.244 366.017 120.717 366.904 120.521 367.778L119.331 373.149C119.147 373.974 118.416 374.562 117.572 374.562H83.0591C81.845 374.562 80.9453 373.438 81.2065 372.254L82.2222 367.663C82.4054 366.829 83.1003 366.206 83.9469 366.114C83.9816 366.108 84.0152 366.105 84.0477 366.101C87.2108 365.735 90.529 363.738 92.5767 353.951L100.403 318.121C101.41 313.347 99.0233 311.532 96.9648 310.725C96.9474 310.719 96.826 310.675 96.6374 310.612C95.6943 310.291 95.1415 309.309 95.3583 308.335L96.4217 303.549C96.6222 302.643 97.4255 302 98.3512 302H131.178C132.326 302 133.18 303.062 132.932 304.184L131.886 308.907C131.734 309.597 131.223 310.154 130.546 310.362C130.465 310.388 130.38 310.413 130.296 310.44C128.76 310.94 126.33 312.199 125.584 315.259L121.211 335.199C121.21 335.205 121.217 335.21 121.223 335.205L146.685 314.044C148.212 312.785 147.823 311.101 146.072 310.427C146.072 310.427 146.067 310.426 146.061 310.424C145.066 310.123 144.47 309.104 144.696 308.089L145.703 303.541ZM317.226 303.502C318.318 303.803 318.98 304.909 318.733 306.016L314.86 323.446C314.675 324.276 313.938 324.868 313.087 324.868H307.577C306.537 324.868 305.708 323.995 305.763 322.956C305.776 322.73 305.778 322.637 305.778 322.632C306.042 316.95 302.453 312.7 294.331 312.701C280.828 312.704 271.007 323.783 269.72 338.339C268.392 353.369 278.895 362.103 293.44 362.101C300.896 362.1 306.8 360.661 310.109 359.613C311.423 359.198 312.705 360.336 312.446 361.691L310.736 370.697C310.591 371.466 310.036 372.091 309.29 372.327C306.31 373.276 297.941 375.507 285.133 375.509C254.701 375.514 242.353 358.009 244.266 340.166C245.965 324.274 256.478 300.868 297.935 300.861C305.873 300.86 312.224 302.131 317.226 303.502ZM264.92 120.533C263.28 129.256 261.446 133.634 260.268 139.016C259.046 144.612 256.642 152.794 254.309 153.005C251.952 153.714 251.005 150.988 249.492 153.006C248.59 154.207 247.892 155.793 247.088 156.816C246.577 157.487 246.069 158.981 246.062 159.795C246.062 161.37 245.975 166.455 244.566 173.123C242.442 183.187 238.582 190.518 234.57 195.146C226.888 204.007 219.692 205.433 218.836 205.885C217.735 206.468 216.068 206.124 215.523 205.862C214.97 205.611 214.547 204.946 213.597 204.017C212.617 203.101 212.276 204.494 212.24 204.85C212.202 205.183 212.737 209.376 211.668 211.272C209.365 215.353 207.149 215.707 205.915 220.789C205.5 222.505 205.79 225.097 203.74 223.923C198.73 221.061 191.551 213.312 190.065 205.798C189.613 203.511 190.036 200.959 191.431 196.609C192.237 194.055 192.81 191.213 192.81 189.576C192.81 186.672 191.675 184.21 192.81 183.958C194.914 183.491 195.872 188.936 196.85 188.372C198.549 187.393 197.287 181.643 197.287 181.643C197.287 181.643 196.589 180.008 193.609 179.308C191.894 178.907 191.355 177.624 193.184 176.726C194.549 176.056 196.134 175.176 197.983 175.453C210.336 177.203 213.891 174.721 218.887 173.372C219.868 173.113 220.446 172.998 221.214 173.362C221.977 173.716 224.028 174.838 224.446 175.892C224.868 176.936 224.43 181.035 225.085 184.119C225.753 187.218 227.93 184.403 228.47 183.178C229.018 181.963 229.578 178.967 229.691 178.205C229.811 177.447 230.447 174.26 231.59 173.311C233.854 171.432 234.65 168.962 235.016 167.997C235.39 167.029 235.98 164.049 235.875 159.694C235.767 155.347 234.981 154.876 233.932 153.943C232.894 153.011 231.649 153.191 229.002 150.768C226.642 148.602 224.698 145.104 222.991 142.901C221.278 140.705 218.44 138.344 215.199 137.551C211.972 136.773 213.312 139.75 213.485 140.586C213.621 141.176 214.38 143.818 213.303 144.688C212.249 145.557 205.72 149.946 199.897 148.424C192.957 146.611 190.559 142.749 190.416 139.016C190.317 136.372 191.584 133.821 193.164 130.79C194.09 129.017 194.463 126.059 194.835 123.221C195.131 120.95 195.739 117.667 196.233 116.5C196.589 115.657 197.425 114.741 199.308 114.85C201.17 114.954 202.391 115.881 202.732 117.487C203.938 123.07 205.906 124.479 206.572 124.932C207.247 125.382 208.506 124.479 208.997 124.153C209.494 123.831 210.757 122.554 210.36 121.869C209.757 120.808 209.424 120.171 209.291 119.549C209.061 118.487 210.39 118.616 210.659 118.828C212.835 120.542 214.886 120.693 218.645 121.319C225.221 122.415 226.165 119.991 230.682 120.775C231.268 120.877 232.382 121.366 232.746 122.044C233.045 122.624 233.595 123.959 234.146 124.193C234.694 124.405 236.035 124.488 236.726 124.612C237.682 124.773 239.395 124.667 239.107 126.434C238.371 131.169 232.906 132.475 230.352 132.914C229.298 133.095 228.814 133.182 228.643 133.332C228.09 133.818 228.069 135.301 228.706 136.259C229.157 136.933 231.223 136.976 234.05 136.433C236.999 135.867 239.832 134.443 242.068 130.957C244.438 127.265 245.741 119.136 246.016 117.617C246.284 116.101 246.892 113.561 247.728 113.041C248.554 112.521 252.402 111.352 252.944 111.447C253.59 111.559 254.06 111.871 254.364 113.359C254.667 114.863 254.102 123.82 254.091 125.171C254.076 126.612 254.814 126.599 255.226 126.41C256.124 125.996 258.519 124.4 259.061 122.555C259.462 121.185 258.308 119.191 258.888 117.298C259.791 114.345 260.68 113.559 261.295 113.617C265.05 113.976 265.819 115.621 264.92 120.391M211.703 168.691C210.308 169.201 206.276 170.139 204.324 170.257C202.354 170.367 196.111 170.791 195.062 170.741C193.776 170.667 192.038 170.039 190.625 168.748C190.34 168.486 190.031 167.585 191.184 167.564C193.326 167.526 196.941 166.384 209.392 167.437C210.723 167.547 211.353 167.605 211.668 167.636C211.995 167.669 213.097 168.197 211.703 168.691ZM181.081 163.633C175.02 163.557 172.216 161.299 171.783 160.624C171.366 159.971 172.065 159.463 172.698 159.261C174.13 158.807 176.672 157.522 177.704 156.738C178.74 155.965 181.597 154.186 183.038 153.259C183.717 152.815 187.614 151.119 189.893 152.707C193.312 155.093 196.506 156.687 202.354 156.33C206.117 156.099 206.033 153.063 209.094 152.096C211.86 151.225 212.391 150.546 213.257 150.039C214.375 149.816 215.199 149.534 216.411 150.662C217.947 152.092 218.503 153.22 220.281 155.229C222.714 157.976 225.398 159.256 226.23 159.419C227.056 159.589 227.651 160.261 227.66 160.539C227.667 160.811 227.328 161.666 224.874 162.367C216.683 164.714 207.814 163.21 203.248 161.385C200.93 160.46 198.678 160.207 196.134 161.456C193.572 162.712 186.737 163.702 181.081 163.633ZM178.169 197.324C173.526 197.467 161.39 190.142 156.095 169.351C154.722 164.003 158.094 159.664 160.185 158.918C161.422 158.465 162.073 158.322 162.489 158.266C162.918 158.212 165.032 158.225 164.959 160.612C164.886 162.547 166.492 178.67 170.7 184.505C171.744 185.952 172.71 186.005 173.189 184.727C173.629 183.539 174.36 182.009 174.595 181.427C174.767 181.007 176.299 178.666 176.753 180.443C177.718 184.22 179.98 191.991 180.932 193.998C182.509 197.326 179.91 197.269 178.169 197.324ZM153.773 135.282C153.447 133.882 154.07 131.786 157.368 133.9C157.896 134.24 159.445 134.943 161.167 135.437C162.209 135.738 162.886 135.299 163.179 134.541C163.485 133.79 164.34 132.291 162.873 131.572C161.412 130.842 157.798 130.214 155.736 125.135C155.365 124.229 155.989 123.186 156.569 122.918C157.156 122.656 157.88 122.788 158.556 123.43C159.227 124.06 160.669 125.45 161.959 125.501C163.148 125.558 163.342 125.075 163.583 124.796C164.581 123.674 167.445 119.487 173.382 120.214C175.829 120.514 178.088 121.058 178.912 121.12C179.499 121.158 181.128 121.231 182.688 120.938C184.466 120.606 187.12 120.054 185.821 121.556C184.765 122.774 183.883 123.281 184.808 124.604C184.855 124.672 184.903 124.736 184.947 124.799C185.782 125.973 185.804 127.537 184.956 128.7L184.853 128.85C183.541 130.554 180.828 132.516 175.22 132.872C172.665 133.033 172.505 132.94 172.45 134.401C172.43 134.965 172.438 135.262 172.519 135.655C172.673 136.39 173.144 136.695 174.918 136.805C176.204 136.885 178.558 136.632 178.562 136.631C179.14 136.457 179.822 136.826 179.45 137.307C179.392 137.38 179.157 137.732 179.115 137.786C177.843 139.431 177.446 140.934 177.328 141.832C177.227 142.592 176.788 143.273 176.115 143.623C176.105 143.627 176.098 143.631 176.088 143.636C175.269 144.056 171.961 144.771 169.356 146.921C166.764 149.071 161.346 150.843 159.017 148.201C156.685 145.565 154.786 139.67 153.773 135.282ZM152.09 109.236C151.36 109.314 150.743 108.869 149.947 108.697C149.024 108.496 148.46 108.777 148.077 108.27C147.739 107.747 147.801 107.255 148.328 107.055C148.854 106.857 149.238 107.005 149.77 106.902C150.853 106.697 152.172 105.458 153.149 106.833C153.78 107.725 153.239 109.112 152.09 109.236ZM143.091 142.278C140.749 140.719 140.875 138.676 140.28 136.668C139.016 132.407 137.657 127.275 136.483 122.912C135.772 120.274 135.591 114.083 139.173 114.083C140.977 114.083 142.322 114.649 142.899 116.348C144.183 120.13 141.765 119.472 142.384 123.94C142.825 127.1 143.428 130.215 144.426 135.584C144.885 138.057 145.691 144.01 143.517 142.562M136.194 81.5579C137.5 78.0251 139.873 75.0159 141.494 72.8902C142.977 70.9455 142.276 68.3796 141.519 66.0793C141.028 63.9623 139.667 61.7715 139.459 61.1915C139.308 60.7861 139.305 60.4588 139.434 60.1726C139.531 60.1075 139.611 60.0544 139.711 59.9905L142.578 59.7455C150.784 58.6951 158.021 55.8138 160.207 54.5867C161.283 53.9829 162.426 53.5081 163.595 53.1113C164.965 52.6474 166.382 52.1802 167.801 51.9937C168.874 51.8181 170.145 51.6522 171.233 51.5319C172.855 51.3476 175.42 52.4848 174.851 52.8219C173.476 53.6457 167.1 55.1211 161.491 61.8181C158.053 65.9135 157.255 68.4468 156.096 70.333C154.923 72.2257 153.982 72.6756 152.332 74.101C151.525 74.7894 149.881 76.2311 149.075 78.5249C148.261 80.8403 145.128 88.9184 144.72 101.746C144.675 103.236 144.416 104.809 143.005 105.349C143.005 105.349 142.997 105.351 142.994 105.353C141.835 105.822 140.895 106.589 140.701 105.753C139.957 102.937 138.231 96.8653 137.509 93.0181C137.28 91.8051 137.011 90.6051 136.724 89.404C135.938 86.127 135.582 83.2154 136.194 81.5579ZM161.149 112.752C159.657 113.7 158.195 114.796 157.083 115.515C155.726 116.411 153.817 115.552 154.375 113.65C154.649 112.725 155.963 110.356 158.17 109.936C158.459 109.878 159.552 109.669 160.468 109.559C161.537 109.445 162.675 109.347 163.255 109.323C164.82 109.255 164.99 110.509 163.93 111.157C163.226 111.59 162.14 112.126 161.149 112.752ZM163.207 115.556C163.607 115.23 163.782 115.229 165.128 114.489C166.086 113.959 167.178 113.303 168.282 112.588C170.281 111.288 174.065 109.944 175.672 109.96C176.833 109.974 178.862 110.475 179.941 111.652C181.069 112.881 181.377 114.311 179.906 114.063C178.449 113.812 176.901 113.419 174.096 114.063C170.959 114.779 168.829 115.982 167.316 116.659C165.768 117.376 164.201 117.548 163.682 117.524C163.183 117.491 161.758 116.728 163.207 115.556ZM186.374 143.341C186.74 144.013 186.859 145.145 186.754 145.611C186.646 146.183 184.636 146.931 182.964 144.433C181.295 141.948 182.078 138.892 183.071 137.692C184.644 135.766 187.051 137.165 186.705 137.878C185.5 140.348 186.036 142.672 186.374 143.341ZM236.536 118.949C235.921 119.26 233.6 118.481 232.958 118.121C231.675 117.402 230.761 116.892 229.033 115.417C227.887 114.449 225.801 113.994 223.822 114.088C222.309 114.162 220.802 114.487 219.64 114.758C218.494 115.034 218.407 113.994 218.748 113.6C219.092 113.209 220.7 111.734 224.211 110.815C224.722 110.681 225.711 110.725 226.209 110.779C227.673 110.943 229.425 111.917 230.686 113.141C231.946 114.375 234.495 116.546 235.874 117.386C236.529 117.78 237.99 118.206 236.536 118.949ZM235.102 113.143C235.102 113.143 232.931 111.66 232.236 110.454C231.894 109.858 231.972 109.36 232.891 109.352C236.146 109.319 239.127 109.241 240.578 110.459C241.634 111.347 241.663 113.203 241.145 114.401C240.546 115.769 239.353 115.381 238.672 115.283C237.991 115.181 235.102 113.143 235.102 113.143ZM251.42 108.27C250.927 108.802 250.491 108.482 249.475 108.734C248.683 108.928 248.156 109.375 247.427 109.31C246.274 109.205 245.707 107.828 246.322 106.925C247.275 105.533 248.618 106.746 249.703 106.936C250.236 107.029 250.618 106.873 251.148 107.062C251.678 107.25 251.751 107.741 251.42 108.27ZM157.578 45.3509C158.076 44.5812 159.283 43.4571 160.49 42.5856C161.754 41.6815 167.972 37.0224 173.749 35.2631C174.82 34.9444 175.094 34.7829 175.778 34.6181C176.644 34.3926 177.378 32.5281 175.576 32.256C173.683 31.9829 172.913 32.1064 171.905 32.139C170.896 32.1617 170.41 31.6208 171.141 30.8273C171.885 30.0295 173.224 29.2154 175.579 28.2701C180.722 26.2224 189.836 25.1276 194.087 24.7503C199.633 24.2723 200.304 24.2896 203.911 24.5672C207.292 24.8219 209.944 25.4517 211.199 25.6728C217.563 26.8241 224.896 29.7726 231.415 33.3509C234.847 35.3867 238.153 37.6598 241.231 40.0587C250.571 47.3401 261.299 61.1894 259.733 90.3601C259.547 93.804 259.139 95.714 258.914 96.5455C258.681 97.3899 257.563 98.8317 256.971 96.9238C255.042 90.6831 252.559 79.6826 246.912 70.9953C246.127 69.7845 244.913 69.8972 245.033 71.1731C245.078 71.7054 245.339 77.2696 245.201 78.3438C244.286 85.5102 246.481 82.7189 249.715 90.4067C250.717 92.785 252.005 97.4864 252.328 100.518C252.412 101.28 252.515 102.165 252.534 103.012C252.556 104.083 252.025 104.155 252.025 104.155C249.812 104.147 245.956 103.097 243.874 103.031C241.508 102.955 225.082 102.789 218.909 103.276C212.732 103.746 209.365 105.97 205.868 108.833C205.288 109.308 204.461 109.752 203.996 109.985C203.762 110.102 203.501 110.137 203.246 110.092C202.962 110.042 202.501 109.956 201.771 109.804C200.262 109.494 198.438 109.371 196.964 109.822C195.492 110.263 194.798 110.643 193.207 109.72C190.941 108.396 187.466 103.107 175.339 103.009C168.467 102.955 159.455 102.862 154.149 103.096C152.434 103.171 151.539 103.364 151.099 103.353C151.062 103.151 151.053 102.87 151.051 102.816C150.962 93.1319 157.281 95.2794 158.005 92.7634C159.81 86.4913 160.232 71.404 171.186 62.1422C176.423 57.7151 179.146 57.5298 184.005 57.5298C189.243 57.5298 194.352 58.8967 196.958 60.1877C199.032 61.2121 200.06 61.8983 200.875 61.2945C201.689 60.6756 203.869 58.6994 204.767 58.0208C205.67 57.3281 205.33 56.2528 204.478 55.5482C203.659 54.8848 195.887 45.1113 183.975 43.1417C181.246 42.6875 179.23 42.2734 176.751 42.2669C175.411 42.217 174.222 42.2105 171.109 42.5877C166.55 43.1417 160.589 45.6793 156.753 47.2013C156.546 46.9812 157.339 45.6956 157.578 45.3509ZM153.643 181.18C153.762 186.182 156.661 199.388 173.435 211.919C180.43 217.143 183.638 219.5 184.56 220.14L184.556 220.178C185.017 220.5 182.076 220.425 181.267 220.503C179.953 220.628 175.481 220.222 171.9 220.885C168.67 221.481 169.109 222.259 168.788 224.596C168.533 226.448 168.772 229.383 168.68 231.886C168.583 234.387 168.446 236.166 169.506 237.377C170.551 238.567 171.211 238.758 175.644 238.483C179.861 238.225 191.537 238.217 192.944 237.931C194.75 237.561 194.462 238.216 193.421 240.45C191.638 244.278 185.822 261.827 176.784 278.502C175.517 280.838 179.08 279.733 182.12 281.199C187.617 283.85 187.437 284.589 188.881 281.822C190.447 278.825 198.378 260.157 199.607 254.394C199.765 253.641 200.088 252.99 200.212 254.119C200.3 254.933 200.417 278.515 199.759 285.954C199.725 286.348 199.82 286.759 200.096 287.043C200.493 287.45 201.091 287.62 201.599 287.738C201.604 287.738 201.609 287.738 201.614 287.738C204.344 286.826 207.65 286.156 210.456 286.62C210.706 286.591 210.943 286.537 211.171 286.465C211.321 286.339 211.457 286.192 211.553 286.015C211.772 285.62 211.884 285.172 211.982 284.733C211.99 284.699 211.998 284.666 212.004 284.63C212.141 284.003 212.253 283.368 212.321 282.73C212.36 282.352 212.387 281.973 212.411 281.594C212.441 281.104 212.463 280.611 212.479 280.119C212.501 279.526 212.515 278.932 212.524 278.34C212.533 277.655 212.538 276.97 212.538 276.285C212.538 275.522 212.53 274.754 212.519 273.989C212.506 273.154 212.487 273.433 212.463 272.598C212.437 271.705 212.404 270.811 212.366 269.919C212.326 268.977 212.28 268.035 212.225 267.092C212.171 266.113 212.109 265.135 212.039 264.155C211.967 263.15 211.888 262.144 211.798 261.138C211.709 260.116 211.612 259.095 211.504 258.074C211.395 257.047 211.277 256.021 211.149 254.996C211.021 253.974 210.883 252.955 210.732 251.937C210.584 250.93 210.424 249.926 210.249 248.926C210.079 247.948 209.895 247.527 209.696 246.554C209.502 245.613 209.295 244.675 209.069 243.741C208.853 242.849 208.619 241.96 208.364 241.076C208.16 240.376 207.945 239.677 207.714 238.979C207.673 238.868 207.484 237.911 207.51 237.788C207.58 237.443 208.014 237.691 208.488 237.6C208.488 237.6 208.71 237.558 208.836 237.538C211.837 237.135 217.062 237.404 218.242 237.453C219.404 237.487 225.343 238.053 227.017 238.207C228.678 238.366 230.696 238.753 230.607 233.71C230.583 232.364 230.579 231.564 230.583 230.31C230.585 230.141 230.585 229.965 230.585 229.799C230.59 229.481 230.591 229.167 230.594 228.866C230.599 228.681 230.599 228.514 230.604 228.336C230.605 228.164 230.607 227.994 230.609 227.829C230.611 227.675 230.615 227.517 230.617 227.373C230.627 227.1 230.632 226.838 230.643 226.598C230.645 226.523 230.645 226.454 230.649 226.382C230.651 226.198 230.659 226.031 230.668 225.876C230.67 225.798 230.673 225.723 230.678 225.649C230.683 225.506 230.692 225.391 230.697 225.286C230.701 225.252 230.701 225.203 230.706 225.173C230.72 225.022 230.727 224.857 230.733 224.679C230.772 223.449 230.612 221.195 228.282 220.595C225.598 219.924 220.879 219.763 216.634 220.132C216.042 220.185 215.911 220.132 216.093 219.966L216.098 219.928C217.012 219.277 223.139 215.891 230.149 209.617C237.86 202.7 241.539 199.023 243.897 194.018C243.897 194.018 252.336 177.646 251.912 163.781C251.827 160.981 252.278 161.216 254.02 161.267C254.542 161.282 256.537 161.143 257.61 160.431C261.19 159.615 264.352 147.394 264.352 147.394C264.352 147.394 269.729 128.834 271.032 121.244C272.192 114.492 271.918 110.547 267.798 108.543L267.109 108.153C266.799 107.977 266.645 107.614 266.739 107.27C266.818 106.983 266.904 106.646 266.946 106.394C268.959 99.3997 272.558 90.5466 271.742 86.9585C271.601 85.9276 270.726 85.5926 270.424 85.3867C270.004 85.1037 268.408 83.3238 267.964 82.0718C267.899 81.8896 267.874 81.6978 267.857 81.5059C266.722 68.3005 262.028 51.7325 248.05 37.3043C248.029 37.2902 247.089 36.4273 246.516 35.9048C245.318 34.8262 243.788 33.4864 242.026 32.165C238.304 29.3823 235.333 27.2468 229.212 24.191C228.739 23.9579 224.142 21.8658 217.349 20.204C216.713 20.0338 216.072 19.868 215.425 19.7162C214.427 19.481 212.868 19.1937 211.092 18.9509C206.906 18.2951 202.258 17.9438 197.425 18.2409V18.243C196.85 18.2712 196.177 18.3059 195.999 18.3081C195.711 18.3124 195.407 18.3276 195.112 18.3395C194.784 18.3525 194.463 18.3579 194.121 18.372C193.099 18.4208 191.75 18.5758 190.334 18.7774C188.048 19.1081 185.596 19.5655 184.085 19.92C182.395 20.3308 180.115 20.8067 177.266 21.623C176.096 21.9644 174.918 22.3287 173.747 22.7081C173.417 22.8121 173.088 22.914 172.762 23.0203C171.497 23.4376 170.225 23.869 168.94 24.3319C168.008 24.6582 164.047 26.3742 163.185 26.7709C162.772 26.9628 162.203 27.2067 161.588 27.456C158.796 28.3406 158.209 29.9558 158.108 30.8425C158.043 31.4138 157.914 31.9796 157.67 32.4989C153.647 41.0495 144.184 41.8777 140.426 42.0653C139.444 42.1119 138.575 42.256 138.886 43.2111C139.687 45.6663 144.113 50.2441 146.822 51.0756C146.783 51.4669 144.502 51.9612 144.023 52.0891C142.932 52.3731 138.448 51.9796 138.225 52.0241C138.206 52.0251 138.191 52.0284 138.172 52.0295C133.086 52.4577 131.524 55.9222 131.068 57.5634C130.926 58.0728 131.007 58.6214 131.299 59.0647C132.421 60.7753 133.602 62.1693 134.492 64.4273C134.502 64.4501 134.512 64.4761 134.52 64.501C134.751 65.0951 134.963 65.7509 135.147 66.4848C135.255 67.4528 136.029 68.4609 135.05 70.359C133.316 73.7205 128.98 74.771 128.332 78.1108C127.408 82.8598 129.047 85.9677 130.843 93.8149C132.076 99.1959 133.407 104.757 134.36 107.279C134.41 107.412 134.332 107.55 134.193 107.577C133.811 107.649 133.151 107.788 132.929 107.862C130.417 108.862 129.628 110.839 129.341 114.707C128.711 123.257 135.025 136.451 136.982 147.753C137.641 151.566 139.398 157.678 142.322 160.18C142.997 160.758 144.409 161.127 145.283 161.28C147.569 161.676 148.562 160.23 148.692 162.526C148.72 163.003 148.882 164.291 148.903 165.019C149.295 173.13 153.643 181.18 153.643 181.18Z" fill="#0A0B09"/>
<path fill-rule="evenodd" clip-rule="evenodd" d="M102.42 15.2759H22.1616C18.2429 15.2759 15.1557 18.619 15.4624 22.5268L36.0023 281.285H102.42V15.2759Z" fill="#E4002B"/>
<path fill-rule="evenodd" clip-rule="evenodd" d="M377.766 15.2759H297.508V281.285H363.925L384.464 22.5268C384.773 18.619 381.685 15.2759 377.766 15.2759Z" fill="#E4002B"/>
</g>
</g>
<defs>
<clipPath id="clip0_1105_66240">
<rect width="400" height="400" fill="white"/>
</clipPath>
</defs>
</svg>
